<svg width="40" height="40" viewBox="0 0 40 40" fill="none" xmlns="http://www.w3.org/2000/svg">
<path d="M28.334 22.3333V27.3333C28.334 34 25.6673 36.6667 19.0006 36.6667H12.6673C6.00065 36.6667 3.33398 34 3.33398 27.3333V21C3.33398 14.3333 6.00065 11.6667 12.6673 11.6667H17.6673" stroke="#171E83" stroke-width="2" stroke-linecap="round" stroke-linejoin="round"/>
<path d="M28.3327 22.3333H22.9993C18.9993 22.3333 17.666 21 17.666 17V11.6667L28.3327 22.3333Z" stroke="#171E83" stroke-width="2" stroke-linecap="round" stroke-linejoin="round"/>
<path d="M19.334 3.33334H26.0007" stroke="#171E83" stroke-width="2" stroke-linecap="round" stroke-linejoin="round"/>
<path d="M11.666 8.33334C11.666 5.56668 13.8993 3.33334 16.666 3.33334H21.0327" stroke="#171E83" stroke-width="2" stroke-linecap="round" stroke-linejoin="round"/>
<path d="M36.6677 13.3333V23.65C36.6677 26.2333 34.5677 28.3333 31.9844 28.3333" stroke="#171E83" stroke-width="2" stroke-linecap="round" stroke-linejoin="round"/>
<path d="M36.666 13.3333H31.666C27.916 13.3333 26.666 12.0833 26.666 8.33334V3.33334L36.666 13.3333Z" stroke="#171E83" stroke-width="2" stroke-linecap="round" stroke-linejoin="round"/>
</svg>
