<svg width="40" height="40" viewBox="0 0 40 40" fill="none" xmlns="http://www.w3.org/2000/svg">
<path d="M29.9654 17.9833V24.65C29.9654 25.0833 29.9487 25.5 29.8987 25.9C29.5154 30.4 26.8654 32.6333 21.982 32.6333H21.3154C20.8987 32.6333 20.4987 32.8333 20.2487 33.1667L18.2487 35.8333C17.3654 37.0167 15.932 37.0167 15.0487 35.8333L13.0487 33.1667C12.832 32.8833 12.3487 32.6333 11.982 32.6333H11.3154C5.99871 32.6333 3.33203 31.3167 3.33203 24.65V17.9833C3.33203 13.1 5.58205 10.45 10.0654 10.0667C10.4654 10.0167 10.882 10 11.3154 10H21.982C27.2987 10 29.9654 12.6667 29.9654 17.9833Z" stroke="#171E83" stroke-width="2" stroke-miterlimit="10" stroke-linecap="round" stroke-linejoin="round"/>
<path d="M36.635 11.3167V17.9834C36.635 22.8834 34.385 25.5167 29.9017 25.9C29.9517 25.5 29.9684 25.0834 29.9684 24.65V17.9834C29.9684 12.6667 27.3017 10 21.985 10H11.3184C10.885 10 10.4684 10.0167 10.0684 10.0667C10.4517 5.58336 13.1017 3.33334 17.985 3.33334H28.6517C33.9683 3.33334 36.635 6.00002 36.635 11.3167Z" stroke="#171E83" stroke-width="2" stroke-miterlimit="10" stroke-linecap="round" stroke-linejoin="round"/>
<path d="M22.4918 22.0833H22.5068" stroke="#171E83" stroke-width="2.66667" stroke-linecap="round" stroke-linejoin="round"/>
<path d="M16.6598 22.0833H16.6748" stroke="#171E83" stroke-width="2.66667" stroke-linecap="round" stroke-linejoin="round"/>
<path d="M10.8258 22.0833H10.8408" stroke="#171E83" stroke-width="2.66667" stroke-linecap="round" stroke-linejoin="round"/>
</svg>
